# File created by Blade
# Date/Time:  Tue Apr 07 20:53:11 2015
# Frame Rate: 120.000 fps
#------------------------------------------------------
:FULLY-SPECIFIED
:DEGREES
1203
root -2.488157 33.256271 0.555655 11.177873 8.354453 -365.089271
Spine -10.787790 -8.719308 5.549569
Head 10.365611 -3.060041 -3.194788
LeftShoulder -19.584012 37.655803 22.328683
LeftArm 60.465083 -55.803529 -62.454840
LeftForeArm 9.262195 -0.000000 -1.994667
LeftHand 5.889721 -0.000000 8.302154
LeftHandThumb1 -26.253704 0.000000 33.147579
RightShoulder -7.680385 5.814625 -33.039490
RightArm 11.118202 19.158730 44.187103
RightForeArm -13.500497 -0.000000 -1.510168
RightHand 4.075079 -0.000000 0.165286
RightHandThumb1 -24.326973 -0.000000 -32.862282
LeftUpLeg -8.072173 -7.942764 5.191580
LeftLeg -0.341864 -0.000000 0.000000
LeftFoot -3.886383 9.211107 -11.715590
LeftToeBase -12.097887 -0.000000 0.000000
RightUpLeg -10.188927 -0.296051 5.073186
RightLeg 5.516203 -0.000000 -0.000000
RightFoot -6.044995 -13.491463 7.464573
RightToeBase -3.691243 -0.000000 0.000000
1204
root -2.498516 33.238946 0.561304 11.192642 8.208587 -364.864724
Spine -10.850473 -8.627186 5.234077
Head 10.432117 -3.032195 -3.103588
LeftShoulder -19.681218 37.632467 22.267261
LeftArm 60.310761 -55.838954 -62.101439
LeftForeArm 9.219441 -0.000000 -1.874246
LeftHand 5.813084 -0.000000 8.297686
LeftHandThumb1 -26.253704 0.000000 33.147579
RightShoulder -7.710528 5.801405 -33.051988
RightArm 11.042555 19.164875 43.992829
RightForeArm -13.530264 -0.000000 -1.490825
RightHand 4.019042 -0.000000 0.261779
RightHandThumb1 -24.326973 -0.000000 -32.862282
LeftUpLeg -7.924599 -7.666231 4.949342
LeftLeg -0.535710 -0.000000 0.000000
LeftFoot -3.868266 8.970340 -11.812701
LeftToeBase -12.141217 -0.000000 0.000000
RightUpLeg -10.084449 -0.697861 4.955803
RightLeg 5.325540 -0.000000 -0.000000
RightFoot -6.165146 -13.273248 7.329781
RightToeBase -3.532387 -0.000000 0.000000
1205
root -2.509109 33.222471 0.567095 11.196970 8.013994 -364.640793
Spine -10.897455 -8.491563 4.902154
Head 10.505368 -3.018534 -3.002314
LeftShoulder -19.727483 37.622926 22.230200
LeftArm 60.344402 -56.013929 -61.990535
LeftForeArm 9.425160 -0.000000 -1.845294
LeftHand 5.809919 -0.000000 8.299846
LeftHandThumb1 -26.253704 0.000000 33.147579
RightShoulder -7.755599 5.736850 -33.070574
RightArm 11.035155 19.211866 43.854045
RightForeArm -13.618467 -0.000000 -1.486204
RightHand 3.980264 0.000000 0.170867
RightHandThumb1 -24.326973 -0.000000 -32.862282
LeftUpLeg -7.741919 -7.484028 4.718078
LeftLeg -0.769535 -0.000000 0.000000
LeftFoot -3.855400 8.865542 -11.934195
LeftToeBase -12.171020 -0.000000 0.000000
RightUpLeg -9.945892 -1.027460 4.819085
RightLeg 5.087659 -0.000000 -0.000000
RightFoot -6.297826 -13.075012 7.197638
RightToeBase -3.382741 -0.000000 0.000000
1206
root -2.520077 33.206592 0.574213 11.180821 7.773607 -364.409269
Spine -10.911429 -8.336042 4.559360
Head 10.523800 -2.996223 -2.916111
LeftShoulder -19.845682 37.633592 22.137107
LeftArm 60.394253 -56.151595 -61.846622
LeftForeArm 9.562630 -0.000000 -1.856073
LeftHand 5.817112 -0.000000 8.207260
LeftHandThumb1 -26.253704 0.000000 33.147579
RightShoulder -7.789384 5.682021 -33.095156
RightArm 11.018447 19.218091 43.692586
RightForeArm -13.623331 -0.000000 -1.505612
RightHand 4.027970 -0.000000 0.126894
RightHandThumb1 -24.326973 -0.000000 -32.862282
LeftUpLeg -7.533986 -7.318763 4.473351
LeftLeg -0.995064 -0.000000 0.000000
LeftFoot -3.853787 8.807907 -12.053363
LeftToeBase -12.181244 -0.000000 0.000000
RightUpLeg -9.753716 -1.290852 4.642163
RightLeg 4.796527 -0.000000 -0.000000
RightFoot -6.494229 -12.799448 7.233005
RightToeBase -3.025963 -0.000000 0.000000
1207
root -2.531079 33.191488 0.580374 11.163093 7.547383 -364.177375
Spine -10.923319 -8.208814 4.226173
Head 10.543157 -2.951138 -2.841643
LeftShoulder -19.970547 37.659337 22.024316
LeftArm 60.409220 -56.301538 -61.659927
LeftForeArm 9.741271 -0.000000 -1.895865
LeftHand 5.699480 -0.000000 8.328896
LeftHandThumb1 -26.253704 0.000000 33.147579
RightShoulder -7.809056 5.618701 -33.131029
RightArm 11.012100 19.250127 43.556593
RightForeArm -13.749457 -0.000000 -1.520232
RightHand 4.063316 -0.000000 0.089973
RightHandThumb1 -24.326973 -0.000000 -32.862282
LeftUpLeg -7.349236 -7.181800 4.232019
LeftLeg -1.183563 -0.000000 0.000000
LeftFoot -3.853270 8.762269 -12.180447
LeftToeBase -12.172609 -0.000000 0.000000
RightUpLeg -9.532710 -1.471668 4.439613
RightLeg 4.459339 -0.000000 -0.000000
RightFoot -6.666016 -12.510192 7.327556
RightToeBase -2.711558 -0.000000 0.000000
